<svg xmlns="http://www.w3.org/2000/svg" version="1.1" xmlns:xlink="http://www.w3.org/1999/xlink" xmlns:svgjs="http://svgjs.com/svgjs" width="1440" height="560" preserveAspectRatio="none" viewBox="0 0 1440 560"><g mask="url(&quot;#SvgjsMask1000&quot;)" fill="none"><rect width="1440" height="560" x="0" y="0" fill="#f9f9f9"></rect><path d="M-53.44 408.73L-53.44 408.73" stroke="#eee" stroke-width="1.5"></path><path d="M-53.44 408.73L-83.01 703.89" stroke="#eee" stroke-width="1.5"></path><path d="M-53.44 408.73L228.02 518.44" stroke="#eee" stroke-width="1.5"></path><path d="M-53.44 408.73L246.62 349.96" stroke="#eee" stroke-width="1.5"></path><path d="M-53.44 408.73L60.52 708.38" stroke="#eee" stroke-width="1.5"></path><path d="M-53.44 408.73L209.06 677.69" stroke="#eee" stroke-width="1.5"></path><path d="M-83.01 703.89L-83.01 703.89" stroke="#eee" stroke-width="1.5"></path><path d="M-83.01 703.89L60.52 708.38" stroke="#eee" stroke-width="1.5"></path><path d="M-83.01 703.89L209.06 677.69" stroke="#eee" stroke-width="1.5"></path><path d="M-83.01 703.89L228.02 518.44" stroke="#eee" stroke-width="1.5"></path><path d="M-83.01 703.89L394.29 659.4" stroke="#eee" stroke-width="1.5"></path><path d="M-83.01 703.89L246.62 349.96" stroke="#eee" stroke-width="1.5"></path><path d="M60.52 708.38L60.52 708.38" stroke="#eee" stroke-width="1.5"></path><path d="M60.52 708.38L209.06 677.69" stroke="#eee" stroke-width="1.5"></path><path d="M246.62 349.96L246.62 349.96" stroke="#eee" stroke-width="1.5"></path><path d="M246.62 349.96L401.55 374.69" stroke="#eee" stroke-width="1.5"></path><path d="M246.62 349.96L228.02 518.44" stroke="#eee" stroke-width="1.5"></path><path d="M246.62 349.96L395.91 561.62" stroke="#eee" stroke-width="1.5"></path><path d="M228.02 518.44L228.02 518.44" stroke="#eee" stroke-width="1.5"></path><path d="M228.02 518.44L209.06 677.69" stroke="#eee" stroke-width="1.5"></path><path d="M228.02 518.44L395.91 561.62" stroke="#eee" stroke-width="1.5"></path><path d="M228.02 518.44L394.29 659.4" stroke="#eee" stroke-width="1.5"></path><path d="M209.06 677.69L209.06 677.69" stroke="#eee" stroke-width="1.5"></path><path d="M209.06 677.69L394.29 659.4" stroke="#eee" stroke-width="1.5"></path><path d="M209.06 677.69L395.91 561.62" stroke="#eee" stroke-width="1.5"></path><path d="M401.55 374.69L401.55 374.69" stroke="#eee" stroke-width="1.5"></path><path d="M401.55 374.69L524.51 356.06" stroke="#eee" stroke-width="1.5"></path><path d="M401.55 374.69L395.91 561.62" stroke="#eee" stroke-width="1.5"></path><path d="M401.55 374.69L494.2 550.63" stroke="#eee" stroke-width="1.5"></path><path d="M401.55 374.69L228.02 518.44" stroke="#eee" stroke-width="1.5"></path><path d="M401.55 374.69L681.44 387.13" stroke="#eee" stroke-width="1.5"></path><path d="M395.91 561.62L395.91 561.62" stroke="#eee" stroke-width="1.5"></path><path d="M395.91 561.62L394.29 659.4" stroke="#eee" stroke-width="1.5"></path><path d="M395.91 561.62L494.2 550.63" stroke="#eee" stroke-width="1.5"></path><path d="M395.91 561.62L552.74 678.19" stroke="#eee" stroke-width="1.5"></path><path d="M394.29 659.4L394.29 659.4" stroke="#eee" stroke-width="1.5"></path><path d="M394.29 659.4L494.2 550.63" stroke="#eee" stroke-width="1.5"></path><path d="M394.29 659.4L552.74 678.19" stroke="#eee" stroke-width="1.5"></path><path d="M524.51 356.06L524.51 356.06" stroke="#eee" stroke-width="1.5"></path><path d="M524.51 356.06L681.44 387.13" stroke="#eee" stroke-width="1.5"></path><path d="M524.51 356.06L494.2 550.63" stroke="#eee" stroke-width="1.5"></path><path d="M524.51 356.06L689.34 238.19" stroke="#eee" stroke-width="1.5"></path><path d="M524.51 356.06L648.6 559.53" stroke="#eee" stroke-width="1.5"></path><path d="M524.51 356.06L395.91 561.62" stroke="#eee" stroke-width="1.5"></path><path d="M494.2 550.63L494.2 550.63" stroke="#eee" stroke-width="1.5"></path><path d="M494.2 550.63L552.74 678.19" stroke="#eee" stroke-width="1.5"></path><path d="M494.2 550.63L648.6 559.53" stroke="#eee" stroke-width="1.5"></path><path d="M552.74 678.19L552.74 678.19" stroke="#eee" stroke-width="1.5"></path><path d="M552.74 678.19L686.93 684.84" stroke="#eee" stroke-width="1.5"></path><path d="M552.74 678.19L648.6 559.53" stroke="#eee" stroke-width="1.5"></path><path d="M689.34 238.19L689.34 238.19" stroke="#eee" stroke-width="1.5"></path><path d="M689.34 238.19L681.44 387.13" stroke="#eee" stroke-width="1.5"></path><path d="M689.34 238.19L849.58 230.36" stroke="#eee" stroke-width="1.5"></path><path d="M689.34 238.19L803.95 396.05" stroke="#eee" stroke-width="1.5"></path><path d="M681.44 387.13L681.44 387.13" stroke="#eee" stroke-width="1.5"></path><path d="M681.44 387.13L803.95 396.05" stroke="#eee" stroke-width="1.5"></path><path d="M648.6 559.53L648.6 559.53" stroke="#eee" stroke-width="1.5"></path><path d="M648.6 559.53L686.93 684.84" stroke="#eee" stroke-width="1.5"></path><path d="M686.93 684.84L686.93 684.84" stroke="#eee" stroke-width="1.5"></path><path d="M843.9 80.64L843.9 80.64" stroke="#eee" stroke-width="1.5"></path><path d="M843.9 80.64L947.88 99.2" stroke="#eee" stroke-width="1.5"></path><path d="M843.9 80.64L849.58 230.36" stroke="#eee" stroke-width="1.5"></path><path d="M843.9 80.64L982.73 -57.11" stroke="#eee" stroke-width="1.5"></path><path d="M843.9 80.64L689.34 238.19" stroke="#eee" stroke-width="1.5"></path><path d="M843.9 80.64L1117.8 39.8" stroke="#eee" stroke-width="1.5"></path><path d="M849.58 230.36L849.58 230.36" stroke="#eee" stroke-width="1.5"></path><path d="M849.58 230.36L947.88 99.2" stroke="#eee" stroke-width="1.5"></path><path d="M849.58 230.36L803.95 396.05" stroke="#eee" stroke-width="1.5"></path><path d="M849.58 230.36L957.56 383.84" stroke="#eee" stroke-width="1.5"></path><path d="M803.95 396.05L803.95 396.05" stroke="#eee" stroke-width="1.5"></path><path d="M803.95 396.05L957.56 383.84" stroke="#eee" stroke-width="1.5"></path><path d="M826.23 698.62L826.23 698.62" stroke="#eee" stroke-width="1.5"></path><path d="M826.23 698.62L686.93 684.84" stroke="#eee" stroke-width="1.5"></path><path d="M826.23 698.62L995.61 711.52" stroke="#eee" stroke-width="1.5"></path><path d="M826.23 698.62L648.6 559.53" stroke="#eee" stroke-width="1.5"></path><path d="M826.23 698.62L1000.21 487.78" stroke="#eee" stroke-width="1.5"></path><path d="M982.73 -57.11L982.73 -57.11" stroke="#eee" stroke-width="1.5"></path><path d="M982.73 -57.11L947.88 99.2" stroke="#eee" stroke-width="1.5"></path><path d="M982.73 -57.11L1117.8 39.8" stroke="#eee" stroke-width="1.5"></path><path d="M982.73 -57.11L1144.52 -103.98" stroke="#eee" stroke-width="1.5"></path><path d="M947.88 99.2L947.88 99.2" stroke="#eee" stroke-width="1.5"></path><path d="M957.56 383.84L957.56 383.84" stroke="#eee" stroke-width="1.5"></path><path d="M957.56 383.84L1000.21 487.78" stroke="#eee" stroke-width="1.5"></path><path d="M957.56 383.84L1115.93 385.29" stroke="#eee" stroke-width="1.5"></path><path d="M1000.21 487.78L1000.21 487.78" stroke="#eee" stroke-width="1.5"></path><path d="M1000.21 487.78L1115.93 385.29" stroke="#eee" stroke-width="1.5"></path><path d="M1000.21 487.78L803.95 396.05" stroke="#eee" stroke-width="1.5"></path><path d="M1000.21 487.78L995.61 711.52" stroke="#eee" stroke-width="1.5"></path><path d="M1000.21 487.78L1100.95 690.91" stroke="#eee" stroke-width="1.5"></path><path d="M995.61 711.52L995.61 711.52" stroke="#eee" stroke-width="1.5"></path><path d="M995.61 711.52L1100.95 690.91" stroke="#eee" stroke-width="1.5"></path><path d="M995.61 711.52L1264.39 647.47" stroke="#eee" stroke-width="1.5"></path><path d="M1144.52 -103.98L1144.52 -103.98" stroke="#eee" stroke-width="1.5"></path><path d="M1144.52 -103.98L1252.86 -89.58" stroke="#eee" stroke-width="1.5"></path><path d="M1144.52 -103.98L1117.8 39.8" stroke="#eee" stroke-width="1.5"></path><path d="M1144.52 -103.98L1275.19 111.38" stroke="#eee" stroke-width="1.5"></path><path d="M1117.8 39.8L1117.8 39.8" stroke="#eee" stroke-width="1.5"></path><path d="M1117.8 39.8L1089.92 209.49" stroke="#eee" stroke-width="1.5"></path><path d="M1089.92 209.49L1089.92 209.49" stroke="#eee" stroke-width="1.5"></path><path d="M1089.92 209.49L1250.41 201.33" stroke="#eee" stroke-width="1.5"></path><path d="M1089.92 209.49L1115.93 385.29" stroke="#eee" stroke-width="1.5"></path><path d="M1089.92 209.49L947.88 99.2" stroke="#eee" stroke-width="1.5"></path><path d="M1115.93 385.29L1115.93 385.29" stroke="#eee" stroke-width="1.5"></path><path d="M1115.93 385.29L1287.23 516.43" stroke="#eee" stroke-width="1.5"></path><path d="M1115.93 385.29L1250.41 201.33" stroke="#eee" stroke-width="1.5"></path><path d="M1115.93 385.29L1403.27 347.55" stroke="#eee" stroke-width="1.5"></path><path d="M1100.95 690.91L1100.95 690.91" stroke="#eee" stroke-width="1.5"></path><path d="M1100.95 690.91L1264.39 647.47" stroke="#eee" stroke-width="1.5"></path><path d="M1100.95 690.91L1287.23 516.43" stroke="#eee" stroke-width="1.5"></path><path d="M1100.95 690.91L826.23 698.62" stroke="#eee" stroke-width="1.5"></path><path d="M1252.86 -89.58L1252.86 -89.58" stroke="#eee" stroke-width="1.5"></path><path d="M1252.86 -89.58L1400.54 -45.23" stroke="#eee" stroke-width="1.5"></path><path d="M1252.86 -89.58L1117.8 39.8" stroke="#eee" stroke-width="1.5"></path><path d="M1252.86 -89.58L1275.19 111.38" stroke="#eee" stroke-width="1.5"></path><path d="M1252.86 -89.58L1453.39 93.97" stroke="#eee" stroke-width="1.5"></path><path d="M1275.19 111.38L1275.19 111.38" stroke="#eee" stroke-width="1.5"></path><path d="M1275.19 111.38L1250.41 201.33" stroke="#eee" stroke-width="1.5"></path><path d="M1275.19 111.38L1117.8 39.8" stroke="#eee" stroke-width="1.5"></path><path d="M1275.19 111.38L1453.39 93.97" stroke="#eee" stroke-width="1.5"></path><path d="M1275.19 111.38L1400.54 -45.23" stroke="#eee" stroke-width="1.5"></path><path d="M1250.41 201.33L1250.41 201.33" stroke="#eee" stroke-width="1.5"></path><path d="M1250.41 201.33L1442.34 229.28" stroke="#eee" stroke-width="1.5"></path><path d="M1287.23 516.43L1287.23 516.43" stroke="#eee" stroke-width="1.5"></path><path d="M1287.23 516.43L1264.39 647.47" stroke="#eee" stroke-width="1.5"></path><path d="M1287.23 516.43L1422.14 514.01" stroke="#eee" stroke-width="1.5"></path><path d="M1287.23 516.43L1403.27 347.55" stroke="#eee" stroke-width="1.5"></path><path d="M1264.39 647.47L1264.39 647.47" stroke="#eee" stroke-width="1.5"></path><path d="M1264.39 647.47L1448.36 687.26" stroke="#eee" stroke-width="1.5"></path><path d="M1264.39 647.47L1422.14 514.01" stroke="#eee" stroke-width="1.5"></path><path d="M1400.54 -45.23L1400.54 -45.23" stroke="#eee" stroke-width="1.5"></path><path d="M1400.54 -45.23L1541.14 -89.33" stroke="#eee" stroke-width="1.5"></path><path d="M1400.54 -45.23L1453.39 93.97" stroke="#eee" stroke-width="1.5"></path><path d="M1400.54 -45.23L1552.66 38.12" stroke="#eee" stroke-width="1.5"></path><path d="M1453.39 93.97L1453.39 93.97" stroke="#eee" stroke-width="1.5"></path><path d="M1453.39 93.97L1552.66 38.12" stroke="#eee" stroke-width="1.5"></path><path d="M1453.39 93.97L1442.34 229.28" stroke="#eee" stroke-width="1.5"></path><path d="M1453.39 93.97L1543.29 227.31" stroke="#eee" stroke-width="1.5"></path><path d="M1453.39 93.97L1541.14 -89.33" stroke="#eee" stroke-width="1.5"></path><path d="M1442.34 229.28L1442.34 229.28" stroke="#eee" stroke-width="1.5"></path><path d="M1442.34 229.28L1543.29 227.31" stroke="#eee" stroke-width="1.5"></path><path d="M1403.27 347.55L1403.27 347.55" stroke="#eee" stroke-width="1.5"></path><path d="M1403.27 347.55L1442.34 229.28" stroke="#eee" stroke-width="1.5"></path><path d="M1403.27 347.55L1422.14 514.01" stroke="#eee" stroke-width="1.5"></path><path d="M1403.27 347.55L1543.29 227.31" stroke="#eee" stroke-width="1.5"></path><path d="M1403.27 347.55L1607.21 392.29" stroke="#eee" stroke-width="1.5"></path><path d="M1403.27 347.55L1250.41 201.33" stroke="#eee" stroke-width="1.5"></path><path d="M1422.14 514.01L1422.14 514.01" stroke="#eee" stroke-width="1.5"></path><path d="M1448.36 687.26L1448.36 687.26" stroke="#eee" stroke-width="1.5"></path><path d="M1448.36 687.26L1556.82 651.99" stroke="#eee" stroke-width="1.5"></path><path d="M1448.36 687.26L1422.14 514.01" stroke="#eee" stroke-width="1.5"></path><path d="M1448.36 687.26L1287.23 516.43" stroke="#eee" stroke-width="1.5"></path><path d="M1448.36 687.26L1599.23 494.15" stroke="#eee" stroke-width="1.5"></path><path d="M1448.36 687.26L1607.21 392.29" stroke="#eee" stroke-width="1.5"></path><path d="M1541.14 -89.33L1541.14 -89.33" stroke="#eee" stroke-width="1.5"></path><path d="M1541.14 -89.33L1552.66 38.12" stroke="#eee" stroke-width="1.5"></path><path d="M1541.14 -89.33L1252.86 -89.58" stroke="#eee" stroke-width="1.5"></path><path d="M1541.14 -89.33L1543.29 227.31" stroke="#eee" stroke-width="1.5"></path><path d="M1552.66 38.12L1552.66 38.12" stroke="#eee" stroke-width="1.5"></path><path d="M1543.29 227.31L1543.29 227.31" stroke="#eee" stroke-width="1.5"></path><path d="M1543.29 227.31L1607.21 392.29" stroke="#eee" stroke-width="1.5"></path><path d="M1607.21 392.29L1607.21 392.29" stroke="#eee" stroke-width="1.5"></path><path d="M1607.21 392.29L1599.23 494.15" stroke="#eee" stroke-width="1.5"></path><path d="M1607.21 392.29L1422.14 514.01" stroke="#eee" stroke-width="1.5"></path><path d="M1607.21 392.29L1442.34 229.28" stroke="#eee" stroke-width="1.5"></path><path d="M1599.23 494.15L1599.23 494.15" stroke="#eee" stroke-width="1.5"></path><path d="M1599.23 494.15L1556.82 651.99" stroke="#eee" stroke-width="1.5"></path><path d="M1599.23 494.15L1422.14 514.01" stroke="#eee" stroke-width="1.5"></path><path d="M1599.23 494.15L1403.27 347.55" stroke="#eee" stroke-width="1.5"></path><path d="M1556.82 651.99L1556.82 651.99" stroke="#eee" stroke-width="1.5"></path><circle r="5" cx="-53.44" cy="408.73" fill="#eee"></circle><circle r="5" cx="-83.01" cy="703.89" fill="#eee"></circle><circle r="5" cx="60.52" cy="708.38" fill="#eee"></circle><circle r="5" cx="246.62" cy="349.96" fill="#eee"></circle><circle r="5" cx="228.02" cy="518.44" fill="#eee"></circle><circle r="5" cx="209.06" cy="677.69" fill="#eee"></circle><circle r="5" cx="401.55" cy="374.69" fill="#eee"></circle><circle r="5" cx="395.91" cy="561.62" fill="#eee"></circle><circle r="5" cx="394.29" cy="659.4" fill="#eee"></circle><circle r="5" cx="524.51" cy="356.06" fill="#eee"></circle><circle r="5" cx="494.2" cy="550.63" fill="#eee"></circle><circle r="5" cx="552.74" cy="678.19" fill="#eee"></circle><circle r="5" cx="689.34" cy="238.19" fill="#eee"></circle><circle r="5" cx="681.44" cy="387.13" fill="#eee"></circle><circle r="5" cx="648.6" cy="559.53" fill="#eee"></circle><circle r="5" cx="686.93" cy="684.84" fill="#eee"></circle><circle r="5" cx="843.9" cy="80.64" fill="#eee"></circle><circle r="5" cx="849.58" cy="230.36" fill="#eee"></circle><circle r="5" cx="803.95" cy="396.05" fill="#eee"></circle><circle r="5" cx="826.23" cy="698.62" fill="#eee"></circle><circle r="5" cx="982.73" cy="-57.11" fill="#eee"></circle><circle r="5" cx="947.88" cy="99.2" fill="#eee"></circle><circle r="5" cx="957.56" cy="383.84" fill="#eee"></circle><circle r="5" cx="1000.21" cy="487.78" fill="#eee"></circle><circle r="5" cx="995.61" cy="711.52" fill="#eee"></circle><circle r="5" cx="1144.52" cy="-103.98" fill="#eee"></circle><circle r="5" cx="1117.8" cy="39.8" fill="#eee"></circle><circle r="5" cx="1089.92" cy="209.49" fill="#eee"></circle><circle r="5" cx="1115.93" cy="385.29" fill="#eee"></circle><circle r="5" cx="1100.95" cy="690.91" fill="#eee"></circle><circle r="5" cx="1252.86" cy="-89.58" fill="#eee"></circle><circle r="5" cx="1275.19" cy="111.38" fill="#eee"></circle><circle r="5" cx="1250.41" cy="201.33" fill="#eee"></circle><circle r="5" cx="1287.23" cy="516.43" fill="#eee"></circle><circle r="5" cx="1264.39" cy="647.47" fill="#eee"></circle><circle r="5" cx="1400.54" cy="-45.23" fill="#eee"></circle><circle r="5" cx="1453.39" cy="93.97" fill="#eee"></circle><circle r="5" cx="1442.34" cy="229.28" fill="#eee"></circle><circle r="5" cx="1403.27" cy="347.55" fill="#eee"></circle><circle r="5" cx="1422.14" cy="514.01" fill="#eee"></circle><circle r="5" cx="1448.36" cy="687.26" fill="#eee"></circle><circle r="5" cx="1541.14" cy="-89.33" fill="#eee"></circle><circle r="5" cx="1552.66" cy="38.12" fill="#eee"></circle><circle r="5" cx="1543.29" cy="227.31" fill="#eee"></circle><circle r="5" cx="1607.21" cy="392.29" fill="#eee"></circle><circle r="5" cx="1599.23" cy="494.15" fill="#eee"></circle><circle r="5" cx="1556.82" cy="651.99" fill="#eee"></circle><path d="M-82.07 689.29L-82.07 689.29" stroke="#eee)" stroke-width="1.5"></path><path d="M-82.07 689.29L-104.41 531.02" stroke="#eee)" stroke-width="1.5"></path><path d="M-82.07 689.29L95.62 639.09" stroke="#eee)" stroke-width="1.5"></path><path d="M850.09 345.35L850.09 345.35" stroke="#eee)" stroke-width="1.5"></path><path d="M850.09 345.35L974.67 341.05" stroke="#eee)" stroke-width="1.5"></path><path d="M850.09 345.35L842.29 500.11" stroke="#eee)" stroke-width="1.5"></path><path d="M850.09 345.35L692.01 367.38" stroke="#eee)" stroke-width="1.5"></path><path d="M850.09 345.35L1009.45 520.94" stroke="#eee)" stroke-width="1.5"></path><path d="M850.09 345.35L1110.2 384.46" stroke="#eee)" stroke-width="1.5"></path><path d="M850.09 345.35L639.37 519.89" stroke="#eee)" stroke-width="1.5"></path><path d="M1254.62 88.91L1254.62 88.91" stroke="#eee)" stroke-width="1.5"></path><path d="M1254.62 88.91L1280.76 221.12" stroke="#eee)" stroke-width="1.5"></path><path d="M1254.62 88.91L1265.49 -55.34" stroke="#eee)" stroke-width="1.5"></path><path d="M1254.62 88.91L1144.95 227.77" stroke="#eee)" stroke-width="1.5"></path><path d="M1443.98 59.61L1443.98 59.61" stroke="#eee)" stroke-width="1.5"></path><path d="M1443.98 59.61L1450.11 -63.7" stroke="#eee)" stroke-width="1.5"></path><path d="M1443.98 59.61L1602.03 108.25" stroke="#eee)" stroke-width="1.5"></path><path d="M1443.98 59.61L1551.22 -71.76" stroke="#eee)" stroke-width="1.5"></path><path d="M1457.23 386.68L1457.23 386.68" stroke="#eee)" stroke-width="1.5"></path><path d="M1457.23 386.68L1608.17 381.26" stroke="#eee)" stroke-width="1.5"></path><path d="M1457.23 386.68L1405 234.21" stroke="#eee)" stroke-width="1.5"></path><path d="M1457.23 386.68L1565.48 519.58" stroke="#eee)" stroke-width="1.5"></path><path d="M1457.23 386.68L1441.09 557.36" stroke="#eee)" stroke-width="1.5"></path><path d="M1457.23 386.68L1577.86 239.43" stroke="#eee)" stroke-width="1.5"></path><path d="M1577.86 239.43L1577.86 239.43" stroke="#eee)" stroke-width="1.5"></path><path d="M1577.86 239.43L1602.03 108.25" stroke="#eee)" stroke-width="1.5"></path><path d="M1577.86 239.43L1608.17 381.26" stroke="#eee)" stroke-width="1.5"></path><path d="M1561.25 691.1L1561.25 691.1" stroke="#eee)" stroke-width="1.5"></path><path d="M1561.25 691.1L1393.26 681.59" stroke="#eee)" stroke-width="1.5"></path><path d="M1561.25 691.1L1565.48 519.58" stroke="#eee)" stroke-width="1.5"></path><path d="M1561.25 691.1L1441.09 557.36" stroke="#eee)" stroke-width="1.5"></path><path d="M1561.25 691.1L1608.17 381.26" stroke="#eee)" stroke-width="1.5"></path><path d="M1561.25 691.1L1248.69 646.92" stroke="#eee)" stroke-width="1.5"></path><path d="M-104.41 531.02L-104.41 531.02" stroke="#eee)" stroke-width="1.5"></path><path d="M-104.41 531.02L39.42 523.86" stroke="#eee)" stroke-width="1.5"></path><path d="M-104.41 531.02L95.62 639.09" stroke="#eee)" stroke-width="1.5"></path><path d="M-104.41 531.02L208.49 648.56" stroke="#eee)" stroke-width="1.5"></path><path d="M-104.41 531.02L235.83 513.55" stroke="#eee)" stroke-width="1.5"></path><path d="M39.42 523.86L39.42 523.86" stroke="#eee)" stroke-width="1.5"></path><path d="M39.42 523.86L95.62 639.09" stroke="#eee)" stroke-width="1.5"></path><path d="M95.62 639.09L95.62 639.09" stroke="#eee)" stroke-width="1.5"></path><path d="M95.62 639.09L208.49 648.56" stroke="#eee)" stroke-width="1.5"></path><path d="M235.83 513.55L235.83 513.55" stroke="#eee)" stroke-width="1.5"></path><path d="M235.83 513.55L208.49 648.56" stroke="#eee)" stroke-width="1.5"></path><path d="M235.83 513.55L95.62 639.09" stroke="#eee)" stroke-width="1.5"></path><path d="M235.83 513.55L39.42 523.86" stroke="#eee)" stroke-width="1.5"></path><path d="M235.83 513.55L411.18 701.83" stroke="#eee)" stroke-width="1.5"></path><path d="M235.83 513.55L487.85 711.81" stroke="#eee)" stroke-width="1.5"></path><path d="M235.83 513.55L561.34 551.06" stroke="#eee)" stroke-width="1.5"></path><path d="M208.49 648.56L208.49 648.56" stroke="#eee)" stroke-width="1.5"></path><path d="M208.49 648.56L411.18 701.83" stroke="#eee)" stroke-width="1.5"></path><path d="M208.49 648.56L39.42 523.86" stroke="#eee)" stroke-width="1.5"></path><path d="M208.49 648.56L487.85 711.81" stroke="#eee)" stroke-width="1.5"></path><path d="M208.49 648.56L-82.07 689.29" stroke="#eee)" stroke-width="1.5"></path><path d="M411.18 701.83L411.18 701.83" stroke="#eee)" stroke-width="1.5"></path><path d="M411.18 701.83L487.85 711.81" stroke="#eee)" stroke-width="1.5"></path><path d="M411.18 701.83L561.34 551.06" stroke="#eee)" stroke-width="1.5"></path><path d="M561.34 551.06L561.34 551.06" stroke="#eee)" stroke-width="1.5"></path><path d="M561.34 551.06L639.37 519.89" stroke="#eee)" stroke-width="1.5"></path><path d="M561.34 551.06L653.78 700.11" stroke="#eee)" stroke-width="1.5"></path><path d="M561.34 551.06L487.85 711.81" stroke="#eee)" stroke-width="1.5"></path><path d="M487.85 711.81L487.85 711.81" stroke="#eee)" stroke-width="1.5"></path><path d="M487.85 711.81L653.78 700.11" stroke="#eee)" stroke-width="1.5"></path><path d="M487.85 711.81L639.37 519.89" stroke="#eee)" stroke-width="1.5"></path><path d="M692.01 367.38L692.01 367.38" stroke="#eee)" stroke-width="1.5"></path><path d="M692.01 367.38L639.37 519.89" stroke="#eee)" stroke-width="1.5"></path><path d="M692.01 367.38L842.29 500.11" stroke="#eee)" stroke-width="1.5"></path><path d="M692.01 367.38L561.34 551.06" stroke="#eee)" stroke-width="1.5"></path><path d="M692.01 367.38L974.67 341.05" stroke="#eee)" stroke-width="1.5"></path><path d="M692.01 367.38L653.78 700.11" stroke="#eee)" stroke-width="1.5"></path><path d="M639.37 519.89L639.37 519.89" stroke="#eee)" stroke-width="1.5"></path><path d="M639.37 519.89L653.78 700.11" stroke="#eee)" stroke-width="1.5"></path><path d="M653.78 700.11L653.78 700.11" stroke="#eee)" stroke-width="1.5"></path><path d="M842.29 500.11L842.29 500.11" stroke="#eee)" stroke-width="1.5"></path><path d="M842.29 500.11L1009.45 520.94" stroke="#eee)" stroke-width="1.5"></path><path d="M974.67 341.05L974.67 341.05" stroke="#eee)" stroke-width="1.5"></path><path d="M974.67 341.05L1110.2 384.46" stroke="#eee)" stroke-width="1.5"></path><path d="M974.67 341.05L1009.45 520.94" stroke="#eee)" stroke-width="1.5"></path><path d="M1009.45 520.94L1009.45 520.94" stroke="#eee)" stroke-width="1.5"></path><path d="M1009.45 520.94L1102.31 506.6" stroke="#eee)" stroke-width="1.5"></path><path d="M1009.45 520.94L1110.2 384.46" stroke="#eee)" stroke-width="1.5"></path><path d="M1009.45 520.94L966.25 688.6" stroke="#eee)" stroke-width="1.5"></path><path d="M966.25 688.6L966.25 688.6" stroke="#eee)" stroke-width="1.5"></path><path d="M966.25 688.6L1144.05 678.9" stroke="#eee)" stroke-width="1.5"></path><path d="M1144.95 227.77L1144.95 227.77" stroke="#eee)" stroke-width="1.5"></path><path d="M1144.95 227.77L1280.76 221.12" stroke="#eee)" stroke-width="1.5"></path><path d="M1144.95 227.77L1110.2 384.46" stroke="#eee)" stroke-width="1.5"></path><path d="M1144.95 227.77L1257.11 350.74" stroke="#eee)" stroke-width="1.5"></path><path d="M1110.2 384.46L1110.2 384.46" stroke="#eee)" stroke-width="1.5"></path><path d="M1110.2 384.46L1102.31 506.6" stroke="#eee)" stroke-width="1.5"></path><path d="M1110.2 384.46L1257.11 350.74" stroke="#eee)" stroke-width="1.5"></path><path d="M1102.31 506.6L1102.31 506.6" stroke="#eee)" stroke-width="1.5"></path><path d="M1102.31 506.6L1276.65 487.94" stroke="#eee)" stroke-width="1.5"></path><path d="M1102.31 506.6L1144.05 678.9" stroke="#eee)" stroke-width="1.5"></path><path d="M1102.31 506.6L1248.69 646.92" stroke="#eee)" stroke-width="1.5"></path><path d="M1144.05 678.9L1144.05 678.9" stroke="#eee)" stroke-width="1.5"></path><path d="M1144.05 678.9L1248.69 646.92" stroke="#eee)" stroke-width="1.5"></path><path d="M1144.05 678.9L1009.45 520.94" stroke="#eee)" stroke-width="1.5"></path><path d="M1144.05 678.9L1276.65 487.94" stroke="#eee)" stroke-width="1.5"></path><path d="M1265.49 -55.34L1265.49 -55.34" stroke="#eee)" stroke-width="1.5"></path><path d="M1265.49 -55.34L1450.11 -63.7" stroke="#eee)" stroke-width="1.5"></path><path d="M1265.49 -55.34L1443.98 59.61" stroke="#eee)" stroke-width="1.5"></path><path d="M1265.49 -55.34L1280.76 221.12" stroke="#eee)" stroke-width="1.5"></path><path d="M1265.49 -55.34L1551.22 -71.76" stroke="#eee)" stroke-width="1.5"></path><path d="M1265.49 -55.34L1144.95 227.77" stroke="#eee)" stroke-width="1.5"></path><path d="M1280.76 221.12L1280.76 221.12" stroke="#eee)" stroke-width="1.5"></path><path d="M1280.76 221.12L1405 234.21" stroke="#eee)" stroke-width="1.5"></path><path d="M1280.76 221.12L1257.11 350.74" stroke="#eee)" stroke-width="1.5"></path><path d="M1257.11 350.74L1257.11 350.74" stroke="#eee)" stroke-width="1.5"></path><path d="M1257.11 350.74L1276.65 487.94" stroke="#eee)" stroke-width="1.5"></path><path d="M1276.65 487.94L1276.65 487.94" stroke="#eee)" stroke-width="1.5"></path><path d="M1276.65 487.94L1248.69 646.92" stroke="#eee)" stroke-width="1.5"></path><path d="M1276.65 487.94L1441.09 557.36" stroke="#eee)" stroke-width="1.5"></path><path d="M1248.69 646.92L1248.69 646.92" stroke="#eee)" stroke-width="1.5"></path><path d="M1248.69 646.92L1393.26 681.59" stroke="#eee)" stroke-width="1.5"></path><path d="M1248.69 646.92L1441.09 557.36" stroke="#eee)" stroke-width="1.5"></path><path d="M1450.11 -63.7L1450.11 -63.7" stroke="#eee)" stroke-width="1.5"></path><path d="M1450.11 -63.7L1551.22 -71.76" stroke="#eee)" stroke-width="1.5"></path><path d="M1450.11 -63.7L1602.03 108.25" stroke="#eee)" stroke-width="1.5"></path><path d="M1450.11 -63.7L1254.62 88.91" stroke="#eee)" stroke-width="1.5"></path><path d="M1405 234.21L1405 234.21" stroke="#eee)" stroke-width="1.5"></path><path d="M1405 234.21L1577.86 239.43" stroke="#eee)" stroke-width="1.5"></path><path d="M1405 234.21L1443.98 59.61" stroke="#eee)" stroke-width="1.5"></path><path d="M1405 234.21L1257.11 350.74" stroke="#eee)" stroke-width="1.5"></path><path d="M1441.09 557.36L1441.09 557.36" stroke="#eee)" stroke-width="1.5"></path><path d="M1441.09 557.36L1565.48 519.58" stroke="#eee)" stroke-width="1.5"></path><path d="M1441.09 557.36L1393.26 681.59" stroke="#eee)" stroke-width="1.5"></path><path d="M1393.26 681.59L1393.26 681.59" stroke="#eee)" stroke-width="1.5"></path><path d="M1393.26 681.59L1276.65 487.94" stroke="#eee)" stroke-width="1.5"></path><path d="M1393.26 681.59L1565.48 519.58" stroke="#eee)" stroke-width="1.5"></path><path d="M1551.22 -71.76L1551.22 -71.76" stroke="#eee)" stroke-width="1.5"></path><path d="M1602.03 108.25L1602.03 108.25" stroke="#eee)" stroke-width="1.5"></path><path d="M1608.17 381.26L1608.17 381.26" stroke="#eee)" stroke-width="1.5"></path><path d="M1608.17 381.26L1565.48 519.58" stroke="#eee)" stroke-width="1.5"></path><path d="M1565.48 519.58L1565.48 519.58" stroke="#eee)" stroke-width="1.5"></path><path d="M1565.48 519.58L1577.86 239.43" stroke="#eee)" stroke-width="1.5"></path><circle r="25" cx="-82.07" cy="689.29" fill="url(#SvgjsRadialGradient1001)"></circle><circle r="25" cx="850.09" cy="345.35" fill="url(#SvgjsRadialGradient1001)"></circle><circle r="25" cx="1254.62" cy="88.91" fill="url(#SvgjsRadialGradient1001)"></circle><circle r="25" cx="1443.98" cy="59.61" fill="url(#SvgjsRadialGradient1001)"></circle><circle r="25" cx="1457.23" cy="386.68" fill="url(#SvgjsRadialGradient1001)"></circle><circle r="25" cx="1577.86" cy="239.43" fill="url(#SvgjsRadialGradient1001)"></circle><circle r="25" cx="1561.25" cy="691.1" fill="url(#SvgjsRadialGradient1001)"></circle><circle r="5" cx="-104.41" cy="531.02" fill="#eee"></circle><circle r="5" cx="39.42" cy="523.86" fill="#eee"></circle><circle r="5" cx="95.62" cy="639.09" fill="#eee"></circle><circle r="5" cx="235.83" cy="513.55" fill="#eee"></circle><circle r="5" cx="208.49" cy="648.56" fill="#eee"></circle><circle r="5" cx="411.18" cy="701.83" fill="#eee"></circle><circle r="5" cx="561.34" cy="551.06" fill="#eee"></circle><circle r="5" cx="487.85" cy="711.81" fill="#eee"></circle><circle r="5" cx="692.01" cy="367.38" fill="#eee"></circle><circle r="5" cx="639.37" cy="519.89" fill="#eee"></circle><circle r="5" cx="653.78" cy="700.11" fill="#eee"></circle><circle r="5" cx="842.29" cy="500.11" fill="#eee"></circle><circle r="5" cx="974.67" cy="341.05" fill="#eee"></circle><circle r="5" cx="1009.45" cy="520.94" fill="#eee"></circle><circle r="5" cx="966.25" cy="688.6" fill="#eee"></circle><circle r="5" cx="1144.95" cy="227.77" fill="#eee"></circle><circle r="5" cx="1110.2" cy="384.46" fill="#eee"></circle><circle r="5" cx="1102.31" cy="506.6" fill="#eee"></circle><circle r="5" cx="1144.05" cy="678.9" fill="#eee"></circle><circle r="5" cx="1265.49" cy="-55.34" fill="#eee"></circle><circle r="5" cx="1280.76" cy="221.12" fill="#eee"></circle><circle r="5" cx="1257.11" cy="350.74" fill="#eee"></circle><circle r="5" cx="1276.65" cy="487.94" fill="#eee"></circle><circle r="5" cx="1248.69" cy="646.92" fill="#eee"></circle><circle r="5" cx="1450.11" cy="-63.7" fill="#eee"></circle><circle r="5" cx="1405" cy="234.21" fill="#eee"></circle><circle r="5" cx="1441.09" cy="557.36" fill="#eee"></circle><circle r="5" cx="1393.26" cy="681.59" fill="#eee"></circle><circle r="5" cx="1551.22" cy="-71.76" fill="#eee"></circle><circle r="5" cx="1602.03" cy="108.25" fill="#eee"></circle><circle r="5" cx="1608.17" cy="381.26" fill="#eee"></circle><circle r="5" cx="1565.48" cy="519.58" fill="#eee"></circle></g><defs><mask id="SvgjsMask1000"><rect width="1440" height="560" fill="#ffffff"></rect></mask><radialGradient id="SvgjsRadialGradient1001"><stop stop-color="#ffffff" offset="0.1"></stop><stop stop-color="#1735b3" offset="0.2"></stop><stop stop-color="rgba(23, 53, 179, 0)" offset="1"></stop></radialGradient></defs></svg>