<svg xmlns="http://www.w3.org/2000/svg" version="1.1" xmlns:xlink="http://www.w3.org/1999/xlink" xmlns:svgjs="http://svgjs.com/svgjs" width="1440" height="560" preserveAspectRatio="none" viewBox="0 0 1440 560"><g mask="url(&quot;#SvgjsMask1657&quot;)" fill="none"><rect width="1440" height="560" x="0" y="0" fill="rgba(239, 239, 239, 1)"></rect><g mask="url(&quot;#SvgjsMask1658&quot;)"><path d="M765 255L799 289L833 289L867 289L901 289M289 323L323 357L357 357L391 357M493 289L527 323L561 323L595 323L629 323L663 289L697 289M391 323L425 323L459 323L493 323M731 255L765 289L799 323L833 323L867 323M119 289L153 323L187 323L221 357L255 357M221 323L255 289L289 289L323 289L357 289M-17 289L17 289L51 289L85 289L119 289L153 289L187 289L221 323L255 323L289 323L323 323L357 323L391 323L425 289L459 289L493 289L527 289L561 289L595 289L629 289L663 255L697 255L731 255L765 255L799 255L833 255L867 255L901 255L935 255" stroke="rgba(235, 235, 235, 1)" stroke-width="5.67"></path><path d="M926.5 255 a8.5 8.5 0 1 0 17 0 a8.5 8.5 0 1 0 -17 0zM892.5 289 a8.5 8.5 0 1 0 17 0 a8.5 8.5 0 1 0 -17 0zM382.5 357 a8.5 8.5 0 1 0 17 0 a8.5 8.5 0 1 0 -17 0zM688.5 289 a8.5 8.5 0 1 0 17 0 a8.5 8.5 0 1 0 -17 0zM484.5 323 a8.5 8.5 0 1 0 17 0 a8.5 8.5 0 1 0 -17 0zM858.5 323 a8.5 8.5 0 1 0 17 0 a8.5 8.5 0 1 0 -17 0zM246.5 357 a8.5 8.5 0 1 0 17 0 a8.5 8.5 0 1 0 -17 0zM348.5 289 a8.5 8.5 0 1 0 17 0 a8.5 8.5 0 1 0 -17 0z" fill="rgba(235, 235, 235, 1)"></path><path d="M459 255L493 221L527 221M663 221L697 187L731 187L765 187M595 255L629 221L663 187M969 221L1003 187L1037 187L1071 187M901 221L935 187L969 187L1003 153L1037 153M425 255L459 221L493 187M799 221L833 187L867 187M153 255L187 221M-17 255L17 255L51 255L85 255L119 255L153 255L187 255L221 255L255 255L289 255L323 255L357 255L391 255L425 255L459 255L493 255L527 255L561 255L595 255L629 255L663 221L697 221L731 221L765 221L799 221L833 221L867 221L901 221L935 221L969 221L1003 221L1037 221" stroke="rgba(235, 235, 235, 1)" stroke-width="5.67"></path><path d="M1028.5 221 a8.5 8.5 0 1 0 17 0 a8.5 8.5 0 1 0 -17 0zM518.5 221 a8.5 8.5 0 1 0 17 0 a8.5 8.5 0 1 0 -17 0zM756.5 187 a8.5 8.5 0 1 0 17 0 a8.5 8.5 0 1 0 -17 0zM654.5 187 a8.5 8.5 0 1 0 17 0 a8.5 8.5 0 1 0 -17 0zM1062.5 187 a8.5 8.5 0 1 0 17 0 a8.5 8.5 0 1 0 -17 0zM1028.5 153 a8.5 8.5 0 1 0 17 0 a8.5 8.5 0 1 0 -17 0zM484.5 187 a8.5 8.5 0 1 0 17 0 a8.5 8.5 0 1 0 -17 0zM858.5 187 a8.5 8.5 0 1 0 17 0 a8.5 8.5 0 1 0 -17 0zM178.5 221 a8.5 8.5 0 1 0 17 0 a8.5 8.5 0 1 0 -17 0z" fill="rgba(235, 235, 235, 1)"></path><path d="M17 323L51 323M-17 323L17 323L51 357L85 357" stroke="rgba(235, 235, 235, 1)" stroke-width="5.67"></path><path d="M76.5 357 a8.5 8.5 0 1 0 17 0 a8.5 8.5 0 1 0 -17 0zM42.5 323 a8.5 8.5 0 1 0 17 0 a8.5 8.5 0 1 0 -17 0z" fill="rgba(235, 235, 235, 1)"></path><path d="M85 187L119 221L153 221L187 187L221 187M51 221L85 221M-17 221L17 221L51 221L85 187L119 187" stroke="rgba(235, 235, 235, 1)" stroke-width="5.67"></path><path d="M110.5 187 a8.5 8.5 0 1 0 17 0 a8.5 8.5 0 1 0 -17 0zM212.5 187 a8.5 8.5 0 1 0 17 0 a8.5 8.5 0 1 0 -17 0zM76.5 221 a8.5 8.5 0 1 0 17 0 a8.5 8.5 0 1 0 -17 0z" fill="rgba(235, 235, 235, 1)"></path><path d="M119 391L153 357M663 391L697 357L731 357L765 357M527 391L561 425M629 391L663 357L697 323L731 323M493 391L527 357L561 357L595 357M595 391L629 425M-17 357L17 357L51 391L85 391L119 391L153 391L187 391L221 391L255 391L289 391L323 391L357 391L391 391L425 391L459 391L493 391L527 391L561 391L595 391L629 391L663 391L697 391L731 391L765 391" stroke="rgba(235, 235, 235, 1)" stroke-width="5.67"></path><path d="M756.5 391 a8.5 8.5 0 1 0 17 0 a8.5 8.5 0 1 0 -17 0zM144.5 357 a8.5 8.5 0 1 0 17 0 a8.5 8.5 0 1 0 -17 0zM756.5 357 a8.5 8.5 0 1 0 17 0 a8.5 8.5 0 1 0 -17 0zM552.5 425 a8.5 8.5 0 1 0 17 0 a8.5 8.5 0 1 0 -17 0zM722.5 323 a8.5 8.5 0 1 0 17 0 a8.5 8.5 0 1 0 -17 0zM586.5 357 a8.5 8.5 0 1 0 17 0 a8.5 8.5 0 1 0 -17 0zM620.5 425 a8.5 8.5 0 1 0 17 0 a8.5 8.5 0 1 0 -17 0z" fill="rgba(235, 235, 235, 1)"></path><path d="M-17 187L17 187L51 187L85 153L119 153L153 153" stroke="rgba(235, 235, 235, 1)" stroke-width="5.67"></path><path d="M144.5 153 a8.5 8.5 0 1 0 17 0 a8.5 8.5 0 1 0 -17 0z" fill="rgba(235, 235, 235, 1)"></path><path d="M391 425L425 459M119 425L153 459L187 493M357 425L391 459L425 493L459 493M-17 391L17 391L51 425L85 425L119 425L153 425L187 425L221 425L255 425L289 425L323 425L357 425L391 425L425 425" stroke="rgba(235, 235, 235, 1)" stroke-width="5.67"></path><path d="M416.5 425 a8.5 8.5 0 1 0 17 0 a8.5 8.5 0 1 0 -17 0zM416.5 459 a8.5 8.5 0 1 0 17 0 a8.5 8.5 0 1 0 -17 0zM178.5 493 a8.5 8.5 0 1 0 17 0 a8.5 8.5 0 1 0 -17 0zM450.5 493 a8.5 8.5 0 1 0 17 0 a8.5 8.5 0 1 0 -17 0z" fill="rgba(235, 235, 235, 1)"></path><path d="M153 119L187 85L221 85M187 119L221 153L255 153L289 153M85 119L119 85L153 85M-17 153L17 153L51 153L85 119L119 119L153 119L187 119L221 119L255 119" stroke="rgba(235, 235, 235, 1)" stroke-width="5.67"></path><path d="M246.5 119 a8.5 8.5 0 1 0 17 0 a8.5 8.5 0 1 0 -17 0zM212.5 85 a8.5 8.5 0 1 0 17 0 a8.5 8.5 0 1 0 -17 0zM280.5 153 a8.5 8.5 0 1 0 17 0 a8.5 8.5 0 1 0 -17 0zM144.5 85 a8.5 8.5 0 1 0 17 0 a8.5 8.5 0 1 0 -17 0z" fill="rgba(235, 235, 235, 1)"></path></g></g><defs><mask id="SvgjsMask1657"><rect width="1440" height="560" fill="#ffffff"></rect></mask><mask id="SvgjsMask1658"><rect width="1440" height="560" fill="white"></rect><path d="M930.75 255 a4.25 4.25 0 1 0 8.5 0 a4.25 4.25 0 1 0 -8.5 0zM896.75 289 a4.25 4.25 0 1 0 8.5 0 a4.25 4.25 0 1 0 -8.5 0zM386.75 357 a4.25 4.25 0 1 0 8.5 0 a4.25 4.25 0 1 0 -8.5 0zM692.75 289 a4.25 4.25 0 1 0 8.5 0 a4.25 4.25 0 1 0 -8.5 0zM488.75 323 a4.25 4.25 0 1 0 8.5 0 a4.25 4.25 0 1 0 -8.5 0zM862.75 323 a4.25 4.25 0 1 0 8.5 0 a4.25 4.25 0 1 0 -8.5 0zM250.75 357 a4.25 4.25 0 1 0 8.5 0 a4.25 4.25 0 1 0 -8.5 0zM352.75 289 a4.25 4.25 0 1 0 8.5 0 a4.25 4.25 0 1 0 -8.5 0z" fill="black"></path><path d="M1032.75 221 a4.25 4.25 0 1 0 8.5 0 a4.25 4.25 0 1 0 -8.5 0zM522.75 221 a4.25 4.25 0 1 0 8.5 0 a4.25 4.25 0 1 0 -8.5 0zM760.75 187 a4.25 4.25 0 1 0 8.5 0 a4.25 4.25 0 1 0 -8.5 0zM658.75 187 a4.25 4.25 0 1 0 8.5 0 a4.25 4.25 0 1 0 -8.5 0zM1066.75 187 a4.25 4.25 0 1 0 8.5 0 a4.25 4.25 0 1 0 -8.5 0zM1032.75 153 a4.25 4.25 0 1 0 8.5 0 a4.25 4.25 0 1 0 -8.5 0zM488.75 187 a4.25 4.25 0 1 0 8.5 0 a4.25 4.25 0 1 0 -8.5 0zM862.75 187 a4.25 4.25 0 1 0 8.5 0 a4.25 4.25 0 1 0 -8.5 0zM182.75 221 a4.25 4.25 0 1 0 8.5 0 a4.25 4.25 0 1 0 -8.5 0z" fill="black"></path><path d="M80.75 357 a4.25 4.25 0 1 0 8.5 0 a4.25 4.25 0 1 0 -8.5 0zM46.75 323 a4.25 4.25 0 1 0 8.5 0 a4.25 4.25 0 1 0 -8.5 0z" fill="black"></path><path d="M114.75 187 a4.25 4.25 0 1 0 8.5 0 a4.25 4.25 0 1 0 -8.5 0zM216.75 187 a4.25 4.25 0 1 0 8.5 0 a4.25 4.25 0 1 0 -8.5 0zM80.75 221 a4.25 4.25 0 1 0 8.5 0 a4.25 4.25 0 1 0 -8.5 0z" fill="black"></path><path d="M760.75 391 a4.25 4.25 0 1 0 8.5 0 a4.25 4.25 0 1 0 -8.5 0zM148.75 357 a4.25 4.25 0 1 0 8.5 0 a4.25 4.25 0 1 0 -8.5 0zM760.75 357 a4.25 4.25 0 1 0 8.5 0 a4.25 4.25 0 1 0 -8.5 0zM556.75 425 a4.25 4.25 0 1 0 8.5 0 a4.25 4.25 0 1 0 -8.5 0zM726.75 323 a4.25 4.25 0 1 0 8.5 0 a4.25 4.25 0 1 0 -8.5 0zM590.75 357 a4.25 4.25 0 1 0 8.5 0 a4.25 4.25 0 1 0 -8.5 0zM624.75 425 a4.25 4.25 0 1 0 8.5 0 a4.25 4.25 0 1 0 -8.5 0z" fill="black"></path><path d="M148.75 153 a4.25 4.25 0 1 0 8.5 0 a4.25 4.25 0 1 0 -8.5 0z" fill="black"></path><path d="M420.75 425 a4.25 4.25 0 1 0 8.5 0 a4.25 4.25 0 1 0 -8.5 0zM420.75 459 a4.25 4.25 0 1 0 8.5 0 a4.25 4.25 0 1 0 -8.5 0zM182.75 493 a4.25 4.25 0 1 0 8.5 0 a4.25 4.25 0 1 0 -8.5 0zM454.75 493 a4.25 4.25 0 1 0 8.5 0 a4.25 4.25 0 1 0 -8.5 0z" fill="black"></path><path d="M250.75 119 a4.25 4.25 0 1 0 8.5 0 a4.25 4.25 0 1 0 -8.5 0zM216.75 85 a4.25 4.25 0 1 0 8.5 0 a4.25 4.25 0 1 0 -8.5 0zM284.75 153 a4.25 4.25 0 1 0 8.5 0 a4.25 4.25 0 1 0 -8.5 0zM148.75 85 a4.25 4.25 0 1 0 8.5 0 a4.25 4.25 0 1 0 -8.5 0z" fill="black"></path></mask></defs></svg>